<?xml version="1.0" encoding="UTF-8" standalone="no"?>
<svg width="197px" height="52px" viewBox="0 0 197 52" version="1.1" xmlns="http://www.w3.org/2000/svg" xmlns:xlink="http://www.w3.org/1999/xlink">
    <!-- Generator: sketchtool 39.1 (31720) - http://www.bohemiancoding.com/sketch -->
    <title>8B188BF4-1808-468D-A27F-A357745A1DA1</title>
    <desc>Created with sketchtool.</desc>
    <defs></defs>
    <g id="Symbols" stroke="none" stroke-width="1" fill="none" fill-rule="evenodd">
        <g id="header" transform="translate(-144.000000, -46.000000)">
            <g id="logo-copy">
                <g transform="translate(144.000000, 48.000000)">
                    <g id="Group-2" transform="translate(1.262821, 8.842105)"></g>
                    <path d="M3.02500731,25.3236471 L13.0507458,25.3236471 C13.9433931,25.3236471 14.7577142,25.1315048 15.4923589,24.7472202 C16.2270035,24.3629355 16.8536122,23.8438844 17.3721848,23.1887324 C17.8907575,22.5349148 18.294542,21.7943662 18.5821878,20.9684211 C18.8698336,20.1438102 19.0143317,19.2751668 19.0143317,18.3638251 C19.0143317,17.4538176 18.8482264,16.5785026 18.5173662,15.7378799 C18.186506,14.8985915 17.7395072,14.1660489 17.1777201,13.5389177 C16.615933,12.9131208 15.9528622,12.4154188 15.1898581,12.0444774 C14.4255036,11.6748703 13.6273879,11.4893996 12.7914595,11.4893996 L3.02500731,11.4893996 L3.02500731,25.3236471 Z M0,39.1578947 L0,8.84210526 L12.9643171,8.84210526 C14.2891082,8.84210526 15.5072138,9.11964418 16.615933,9.67472202 C17.7246522,10.2297999 18.6834715,10.9556709 19.48969,11.8523351 C20.2959084,12.7489993 20.9225171,13.7670867 21.3695159,14.9052632 C21.8165148,16.0447739 22.039339,17.1976279 22.039339,18.3638251 C22.039339,19.4739807 21.8732337,20.5347665 21.5423735,21.544848 C21.2115133,22.5562639 20.7496595,23.4662713 20.159513,24.2775389 C19.5680161,25.0888065 18.8563291,25.7719792 18.0204007,26.3270571 C17.1844723,26.8821349 16.2486107,27.259748 15.2114653,27.4585619 L22.7307692,39.1578947 L19.3168324,39.1578947 L12.1000292,27.9709414 L3.02500731,27.9709414 L3.02500731,39.1578947 L0,39.1578947 Z" id="Fill-1" fill="#FFFFFF"></path>
                    <path d="M50.1393431,14.6445726 C49.2990189,13.6919483 48.1777113,12.9206511 46.7780464,12.331995 C45.3770684,11.7433389 43.7804524,11.4490109 41.9881985,11.4490109 C39.3556204,11.4490109 37.4360048,11.9470034 36.2319778,12.9416746 C35.0279508,13.9363457 34.4252808,15.2897292 34.4252808,16.999197 C34.4252808,17.8966348 34.5867806,18.6324549 34.9084672,19.2066574 C35.2301538,19.7808599 35.7277833,20.2788525 36.4000427,20.6993211 C37.072302,21.1197898 37.9336343,21.4850719 38.9840395,21.7925396 C40.0344448,22.1013213 41.2739229,22.408789 42.7024741,22.7175706 C44.29909,23.0539455 45.7342062,23.4323673 47.0091355,23.852836 C48.2827518,24.2733046 49.3686083,24.7988904 50.2653917,25.4295934 C51.1621752,26.0602964 51.8475646,26.8250237 52.324186,27.7211475 C52.7994943,28.6185853 53.0384615,29.739397 53.0384615,31.0848967 C53.0384615,32.4579896 52.7719212,33.6497555 52.2401536,34.6588802 C51.7070729,35.668005 50.9652242,36.5089423 50.0132945,37.1816921 C49.0613647,37.8544419 47.9256141,38.3524345 46.6099815,38.6743558 C45.293036,38.9962771 43.8500418,39.1578947 42.282312,39.1578947 C37.6605289,39.1578947 33.6689891,37.7138477 30.3076923,34.8270677 L31.7782596,32.4303964 C32.3100273,32.9914592 32.9481485,33.5236149 33.6899972,34.0281772 C34.4318459,34.5327396 35.25904,34.9742317 36.1689535,35.3526535 C37.078867,35.7310753 38.0518049,36.0254033 39.0890801,36.2356376 C40.1250422,36.445872 41.2174637,36.5509891 42.3663444,36.5509891 C44.7468252,36.5509891 46.6034165,36.1239507 47.9334921,35.2685597 C49.2635677,34.4131688 49.9292621,33.1175998 49.9292621,31.3792248 C49.9292621,30.4541937 49.7401891,29.6763267 49.3620432,29.0456238 C48.9838973,28.4149208 48.4166785,27.8683116 47.6603867,27.405796 C46.904095,26.9432805 45.9652953,26.5438353 44.8453007,26.2074604 C43.7253061,25.8710855 42.4228037,25.5347106 40.9377933,25.1983356 C39.3687504,24.8343675 37.9966586,24.4559457 36.8202047,24.0630703 C35.6437509,23.6701949 34.6498049,23.1800861 33.8370539,22.59143 C33.0243028,22.0027739 32.4150678,21.295861 32.0093488,20.4680634 C31.6036298,19.6415797 31.4001137,18.6245711 31.4001137,17.4196657 C31.4001137,16.0465727 31.658776,14.8193299 32.1774136,13.740565 C32.6947382,12.6618001 33.4300219,11.7643624 34.3832646,11.0495657 C35.3351944,10.334769 36.4565019,9.78815972 37.7445614,9.40973794 C39.0326208,9.03131615 40.4611719,8.84210526 42.0302147,8.84210526 C44.0181066,8.84210526 45.7906654,9.14300314 47.3452652,9.74611285 C48.8998649,10.3492226 50.3074079,11.1967297 51.5678942,12.2899482 L50.1393431,14.6445726 Z" id="Fill-4" fill="#FFFFFF"></path>
                    <path d="M85.8717949,23.7473684 C85.8717949,21.9513158 86.1808048,20.1618421 86.7988246,18.3789474 C87.4168444,16.5960526 88.3155483,15.0039474 89.4975112,13.6 C90.6781866,12.1973684 92.1343958,11.0526316 93.8648513,10.1684211 C95.5953068,9.28421053 97.5588073,8.84210526 99.7566403,8.84210526 C102.365199,8.84210526 104.597796,9.44605263 106.451855,10.6526316 C108.305915,11.8592105 109.671996,13.4315789 110.551387,15.3684211 L108.285314,16.8 C107.817936,15.8184211 107.247556,14.9894737 106.575459,14.3157895 C105.902075,13.6421053 105.181052,13.0947368 104.41239,12.6736842 C103.64244,12.2526316 102.846739,11.9513158 102.022713,11.7684211 C101.198687,11.5855263 100.387536,11.4947368 99.591835,11.4947368 C97.8330536,11.4947368 96.2815663,11.8592105 94.9360857,12.5894737 C93.5893175,13.3197368 92.4562811,14.2736842 91.5369766,15.4526316 C90.6163846,16.6315789 89.9223998,17.9578947 89.4563099,19.4315789 C88.9889324,20.9052632 88.7558874,22.4 88.7558874,23.9157895 C88.7558874,25.5723684 89.0365714,27.1578947 89.6005145,28.6736842 C90.16317,30.1894737 90.9318322,31.5302632 91.9077885,32.6947368 C92.8824573,33.8605263 94.0360943,34.7868421 95.3686995,35.4736842 C96.7000173,36.1618421 98.1497888,36.5052632 99.715439,36.5052632 C100.539465,36.5052632 101.384093,36.4 102.24932,36.1894737 C103.114548,35.9789474 103.95145,35.6421053 104.762601,35.1789474 C105.572464,34.7157895 106.320526,34.1407895 107.008073,33.4526316 C107.694332,32.7657895 108.271151,31.9302632 108.738528,30.9473684 L111.128205,32.2105263 C110.660828,33.3342105 110.001606,34.3236842 109.150542,35.1789474 C108.298189,36.0355263 107.350559,36.7578947 106.30765,37.3473684 C105.263454,37.9368421 104.157456,38.3855263 102.990944,38.6947368 C101.823144,39.0039474 100.675945,39.1578947 99.5506337,39.1578947 C97.5446444,39.1578947 95.7047478,38.7092105 94.0296566,37.8105263 C92.3532778,36.9118421 90.9112315,35.7407895 89.7035178,34.2947368 C88.4945165,32.8486842 87.5533238,31.2065789 86.8812273,29.3684211 C86.2078432,27.5302632 85.8717949,25.6565789 85.8717949,23.7473684" id="Fill-6" fill="#FFFFFF"></path>
                    <path d="M121.625164,24 C121.625164,25.6276316 121.889792,27.1934211 122.417745,28.6947368 C122.945698,30.1960526 123.696564,31.5302632 124.670343,32.6947368 C125.644123,33.8592105 126.797798,34.7855263 128.132671,35.4736842 C129.467544,36.1618421 130.954938,36.5052632 132.596154,36.5052632 C134.264746,36.5052632 135.779514,36.1407895 137.143066,35.4105263 C138.505315,34.6802632 139.65899,33.7263158 140.605394,32.5473684 C141.550495,31.3684211 142.280503,30.0355263 142.79542,28.5473684 C143.309034,27.0592105 143.567144,25.5434211 143.567144,24 C143.567144,22.3723684 143.295998,20.8065789 142.753706,19.3052632 C142.211413,17.8039474 141.452726,16.4776316 140.480249,15.3263158 C139.50647,14.175 138.352795,13.2565789 137.017922,12.5684211 C135.683048,11.8815789 134.208691,11.5368421 132.596154,11.5368421 C130.927562,11.5368421 129.41149,11.8947368 128.049242,12.6105263 C126.685689,13.3263158 125.532015,14.2736842 124.586914,15.4526316 C123.640509,16.6315789 122.910501,17.9657895 122.396887,19.4526316 C121.88197,20.9407895 121.625164,22.4565789 121.625164,24 M132.596154,39.1578947 C130.53779,39.1578947 128.654106,38.7302632 126.9438,37.8736842 C125.233493,37.0184211 123.766957,35.8802632 122.542889,34.4631579 C121.318821,33.0460526 120.37372,31.425 119.706283,29.6 C119.038847,27.775 118.705128,25.9092105 118.705128,24 C118.705128,22.0065789 119.059704,20.0986842 119.768855,18.2736842 C120.478007,16.4486842 121.458304,14.8355263 122.709748,13.4315789 C123.961192,12.0276316 125.434246,10.9118421 127.131516,10.0842105 C128.827483,9.25657895 130.662934,8.84210526 132.637869,8.84210526 C134.694929,8.84210526 136.579916,9.28421053 138.290223,10.1684211 C140.000529,11.0526316 141.460547,12.2105263 142.670276,13.6421053 C143.880005,15.0736842 144.818588,16.6947368 145.486024,18.5052632 C146.153461,20.3157895 146.487179,22.1618421 146.487179,24.0421053 C146.487179,26.0355263 146.132604,27.9447368 145.423452,29.7684211 C144.714301,31.5934211 143.740521,33.2 142.503417,34.5894737 C141.265009,35.9789474 139.798473,37.0881579 138.102506,37.9157895 C136.405236,38.7447368 134.571089,39.1578947 132.596154,39.1578947" id="Fill-8" fill="#FFFFFF"></path>
                    <polygon id="Fill-10" fill="#FFFFFF" points="156.589744 39.1578947 159.115385 39.1578947 159.115385 8.84210526 156.589744 8.84210526"></polygon>
                    <polygon id="Fill-12" fill="#FFFFFF" points="174.719934 14.3928836 174.719934 39.1578947 171.74359 39.1578947 171.74359 8.84210526 174.039627 8.84210526 194.023655 34.0767976 194.023655 8.88480356 197 8.88480356 197 39.1578947 194.406328 39.1578947"></polygon>
                    <g id="separator" transform="translate(68.192308, 0.000000)">
                        <path d="M1.26282051,0 L1.26282051,46.7368421" id="Fill-13" fill="#000000"></path>
                        <path d="M1.26282051,0 L1.26282051,48" id="Stroke-14" stroke="#FFFFFF" stroke-width="2.52631579" stroke-linecap="round"></path>
                    </g>
                </g>
            </g>
        </g>
    </g>
</svg>