<?xml version="1.0" encoding="UTF-8" standalone="no"?>
<svg width="24px" height="24px" viewBox="0 0 24 24" version="1.1" xmlns="http://www.w3.org/2000/svg" xmlns:xlink="http://www.w3.org/1999/xlink">
    <!-- Generator: sketchtool 39.1 (31720) - http://www.bohemiancoding.com/sketch -->
    <title>0267ABB9-62FF-4CE1-A25E-02FCDCDA207A</title>
    <desc>Created with sketchtool.</desc>
    <defs></defs>
    <g id="Symbols" stroke="none" stroke-width="1" fill="none" fill-rule="evenodd">
        <g id="header" transform="translate(-1232.000000, -60.000000)" fill="#FFFFFF">
            <g id="search">
                <g transform="translate(640.000000, 48.000000)">
                    <path d="M609.142857,27.0857143 L608.045714,27.0857143 L607.634286,26.6742857 C609.005714,25.1657143 609.828571,23.1085714 609.828571,20.9142857 C609.828571,15.9771429 605.851429,12 600.914286,12 C595.977143,12 592,15.9771429 592,20.9142857 C592,25.8514286 595.977143,29.8285714 600.914286,29.8285714 C603.108571,29.8285714 605.165714,29.0057143 606.674286,27.6342857 L607.085714,28.0457143 L607.085714,29.1428571 L613.942857,36 L616,33.9428571 L609.142857,27.0857143 L609.142857,27.0857143 Z M600.914286,27.0857143 C597.485714,27.0857143 594.742857,24.3428571 594.742857,20.9142857 C594.742857,17.4857143 597.485714,14.7428571 600.914286,14.7428571 C604.342857,14.7428571 607.085714,17.4857143 607.085714,20.9142857 C607.085714,24.3428571 604.342857,27.0857143 600.914286,27.0857143 L600.914286,27.0857143 Z" id="search_ic"></path>
                </g>
            </g>
        </g>
    </g>
</svg>